<svg xmlns="http://www.w3.org/2000/svg" width="936" height="536" viewBox="0 0 936 536" role="img" aria-label="Dependency matrix of src/: every import counted, with the regions lint forbids left empty">
<defs><pattern id="forbidden" width="7" height="7" patternTransform="rotate(45)" patternUnits="userSpaceOnUse"><rect width="7" height="7" fill="#1A1020"/><line x1="0" y1="0" x2="0" y2="7" stroke="#1E2530" stroke-width="1.4"/></pattern></defs>
<rect width="936" height="536" fill="#0B0E14"/>
<text x="32" y="44" fill="#E6EAF2" font-family="system-ui, -apple-system, 'Segoe UI', sans-serif" font-size="17" font-weight="600">Every import in src/, counted</text>
<text x="32" y="66" fill="#64748B" font-family="system-ui, -apple-system, 'Segoe UI', sans-serif" font-size="12.5">Importer down the side, imported across the top. Generated by scripts/dependency-graph.mjs, checked in CI.</text>
<text x="228" y="118" fill="#64748B" font-family="ui-monospace, SFMono-Regular, Menlo, monospace" font-size="11" text-anchor="middle">app</text>
<text x="332" y="118" fill="#64748B" font-family="ui-monospace, SFMono-Regular, Menlo, monospace" font-size="11" text-anchor="middle">release-editor</text>
<text x="436" y="118" fill="#64748B" font-family="ui-monospace, SFMono-Regular, Menlo, monospace" font-size="11" text-anchor="middle">catalog</text>
<text x="540" y="118" fill="#64748B" font-family="ui-monospace, SFMono-Regular, Menlo, monospace" font-size="11" text-anchor="middle">analytics</text>
<text x="644" y="118" fill="#64748B" font-family="ui-monospace, SFMono-Regular, Menlo, monospace" font-size="11" text-anchor="middle">activity</text>
<text x="748" y="118" fill="#64748B" font-family="ui-monospace, SFMono-Regular, Menlo, monospace" font-size="11" text-anchor="middle">shared</text>
<text x="852" y="118" fill="#64748B" font-family="ui-monospace, SFMono-Regular, Menlo, monospace" font-size="11" text-anchor="middle">core</text>
<text x="160" y="158" fill="#E6EAF2" font-family="ui-monospace, SFMono-Regular, Menlo, monospace" font-size="11.5" text-anchor="end">app</text>
<text x="160" y="172" fill="#64748B" font-family="ui-monospace, SFMono-Regular, Menlo, monospace" font-size="9" text-anchor="end">12 files</text>
<rect x="179" y="135" width="98" height="38" fill="#0B0E14" stroke="#1E2530" rx="4"/>
<rect x="283" y="135" width="98" height="38" fill="#12161F" stroke="#1E2530" rx="4"/>
<text x="332" y="159" fill="#8B5CF6" font-family="ui-monospace, SFMono-Regular, Menlo, monospace" font-size="14" text-anchor="middle">2</text>
<rect x="387" y="135" width="98" height="38" fill="#12161F" stroke="#1E2530" rx="4"/>
<text x="436" y="159" fill="#8B5CF6" font-family="ui-monospace, SFMono-Regular, Menlo, monospace" font-size="14" text-anchor="middle">2</text>
<rect x="491" y="135" width="98" height="38" fill="#12161F" stroke="#1E2530" rx="4"/>
<text x="540" y="159" fill="#8B5CF6" font-family="ui-monospace, SFMono-Regular, Menlo, monospace" font-size="14" text-anchor="middle">1</text>
<rect x="595" y="135" width="98" height="38" fill="#12161F" stroke="#1E2530" rx="4"/>
<text x="644" y="159" fill="#8B5CF6" font-family="ui-monospace, SFMono-Regular, Menlo, monospace" font-size="14" text-anchor="middle">2</text>
<rect x="699" y="135" width="98" height="38" fill="#12161F" stroke="#1E2530" rx="4"/>
<text x="748" y="159" fill="#8B5CF6" font-family="ui-monospace, SFMono-Regular, Menlo, monospace" font-size="14" text-anchor="middle">8</text>
<rect x="803" y="135" width="98" height="38" fill="#12161F" stroke="#1E2530" rx="4"/>
<text x="852" y="159" fill="#8B5CF6" font-family="ui-monospace, SFMono-Regular, Menlo, monospace" font-size="14" text-anchor="middle">3</text>
<text x="160" y="202" fill="#E6EAF2" font-family="ui-monospace, SFMono-Regular, Menlo, monospace" font-size="11.5" text-anchor="end">release-editor</text>
<text x="160" y="216" fill="#64748B" font-family="ui-monospace, SFMono-Regular, Menlo, monospace" font-size="9" text-anchor="end">30 files</text>
<rect x="179" y="179" width="98" height="38" fill="url(#forbidden)" stroke="#1E2530" rx="4"/>
<text x="228" y="202" fill="#1E2530" font-family="ui-monospace, SFMono-Regular, Menlo, monospace" font-size="11" text-anchor="middle">&#183;</text>
<rect x="283" y="179" width="98" height="38" fill="#0B0E14" stroke="#1E2530" rx="4"/>
<rect x="387" y="179" width="98" height="38" fill="url(#forbidden)" stroke="#1E2530" rx="4"/>
<text x="436" y="202" fill="#1E2530" font-family="ui-monospace, SFMono-Regular, Menlo, monospace" font-size="11" text-anchor="middle">&#183;</text>
<rect x="491" y="179" width="98" height="38" fill="url(#forbidden)" stroke="#1E2530" rx="4"/>
<text x="540" y="202" fill="#1E2530" font-family="ui-monospace, SFMono-Regular, Menlo, monospace" font-size="11" text-anchor="middle">&#183;</text>
<rect x="595" y="179" width="98" height="38" fill="url(#forbidden)" stroke="#1E2530" rx="4"/>
<text x="644" y="202" fill="#1E2530" font-family="ui-monospace, SFMono-Regular, Menlo, monospace" font-size="11" text-anchor="middle">&#183;</text>
<rect x="699" y="179" width="98" height="38" fill="#12161F" stroke="#1E2530" rx="4"/>
<text x="748" y="203" fill="#8B5CF6" font-family="ui-monospace, SFMono-Regular, Menlo, monospace" font-size="14" text-anchor="middle">25</text>
<rect x="803" y="179" width="98" height="38" fill="#12161F" stroke="#1E2530" rx="4"/>
<text x="852" y="203" fill="#8B5CF6" font-family="ui-monospace, SFMono-Regular, Menlo, monospace" font-size="14" text-anchor="middle">2</text>
<text x="160" y="246" fill="#E6EAF2" font-family="ui-monospace, SFMono-Regular, Menlo, monospace" font-size="11.5" text-anchor="end">catalog</text>
<text x="160" y="260" fill="#64748B" font-family="ui-monospace, SFMono-Regular, Menlo, monospace" font-size="9" text-anchor="end">26 files</text>
<rect x="179" y="223" width="98" height="38" fill="url(#forbidden)" stroke="#1E2530" rx="4"/>
<text x="228" y="246" fill="#1E2530" font-family="ui-monospace, SFMono-Regular, Menlo, monospace" font-size="11" text-anchor="middle">&#183;</text>
<rect x="283" y="223" width="98" height="38" fill="url(#forbidden)" stroke="#1E2530" rx="4"/>
<text x="332" y="246" fill="#1E2530" font-family="ui-monospace, SFMono-Regular, Menlo, monospace" font-size="11" text-anchor="middle">&#183;</text>
<rect x="387" y="223" width="98" height="38" fill="#0B0E14" stroke="#1E2530" rx="4"/>
<rect x="491" y="223" width="98" height="38" fill="url(#forbidden)" stroke="#1E2530" rx="4"/>
<text x="540" y="246" fill="#1E2530" font-family="ui-monospace, SFMono-Regular, Menlo, monospace" font-size="11" text-anchor="middle">&#183;</text>
<rect x="595" y="223" width="98" height="38" fill="url(#forbidden)" stroke="#1E2530" rx="4"/>
<text x="644" y="246" fill="#1E2530" font-family="ui-monospace, SFMono-Regular, Menlo, monospace" font-size="11" text-anchor="middle">&#183;</text>
<rect x="699" y="223" width="98" height="38" fill="#12161F" stroke="#1E2530" rx="4"/>
<text x="748" y="247" fill="#8B5CF6" font-family="ui-monospace, SFMono-Regular, Menlo, monospace" font-size="14" text-anchor="middle">20</text>
<rect x="803" y="223" width="98" height="38" fill="#12161F" stroke="#1E2530" rx="4"/>
<text x="852" y="247" fill="#8B5CF6" font-family="ui-monospace, SFMono-Regular, Menlo, monospace" font-size="14" text-anchor="middle">5</text>
<text x="160" y="290" fill="#E6EAF2" font-family="ui-monospace, SFMono-Regular, Menlo, monospace" font-size="11.5" text-anchor="end">analytics</text>
<text x="160" y="304" fill="#64748B" font-family="ui-monospace, SFMono-Regular, Menlo, monospace" font-size="9" text-anchor="end">15 files</text>
<rect x="179" y="267" width="98" height="38" fill="url(#forbidden)" stroke="#1E2530" rx="4"/>
<text x="228" y="290" fill="#1E2530" font-family="ui-monospace, SFMono-Regular, Menlo, monospace" font-size="11" text-anchor="middle">&#183;</text>
<rect x="283" y="267" width="98" height="38" fill="url(#forbidden)" stroke="#1E2530" rx="4"/>
<text x="332" y="290" fill="#1E2530" font-family="ui-monospace, SFMono-Regular, Menlo, monospace" font-size="11" text-anchor="middle">&#183;</text>
<rect x="387" y="267" width="98" height="38" fill="url(#forbidden)" stroke="#1E2530" rx="4"/>
<text x="436" y="290" fill="#1E2530" font-family="ui-monospace, SFMono-Regular, Menlo, monospace" font-size="11" text-anchor="middle">&#183;</text>
<rect x="491" y="267" width="98" height="38" fill="#0B0E14" stroke="#1E2530" rx="4"/>
<rect x="595" y="267" width="98" height="38" fill="url(#forbidden)" stroke="#1E2530" rx="4"/>
<text x="644" y="290" fill="#1E2530" font-family="ui-monospace, SFMono-Regular, Menlo, monospace" font-size="11" text-anchor="middle">&#183;</text>
<rect x="699" y="267" width="98" height="38" fill="#12161F" stroke="#1E2530" rx="4"/>
<text x="748" y="291" fill="#8B5CF6" font-family="ui-monospace, SFMono-Regular, Menlo, monospace" font-size="14" text-anchor="middle">11</text>
<rect x="803" y="267" width="98" height="38" fill="#12161F" stroke="#1E2530" rx="4"/>
<text x="852" y="291" fill="#8B5CF6" font-family="ui-monospace, SFMono-Regular, Menlo, monospace" font-size="14" text-anchor="middle">1</text>
<text x="160" y="334" fill="#E6EAF2" font-family="ui-monospace, SFMono-Regular, Menlo, monospace" font-size="11.5" text-anchor="end">activity</text>
<text x="160" y="348" fill="#64748B" font-family="ui-monospace, SFMono-Regular, Menlo, monospace" font-size="9" text-anchor="end">10 files</text>
<rect x="179" y="311" width="98" height="38" fill="url(#forbidden)" stroke="#1E2530" rx="4"/>
<text x="228" y="334" fill="#1E2530" font-family="ui-monospace, SFMono-Regular, Menlo, monospace" font-size="11" text-anchor="middle">&#183;</text>
<rect x="283" y="311" width="98" height="38" fill="url(#forbidden)" stroke="#1E2530" rx="4"/>
<text x="332" y="334" fill="#1E2530" font-family="ui-monospace, SFMono-Regular, Menlo, monospace" font-size="11" text-anchor="middle">&#183;</text>
<rect x="387" y="311" width="98" height="38" fill="url(#forbidden)" stroke="#1E2530" rx="4"/>
<text x="436" y="334" fill="#1E2530" font-family="ui-monospace, SFMono-Regular, Menlo, monospace" font-size="11" text-anchor="middle">&#183;</text>
<rect x="491" y="311" width="98" height="38" fill="url(#forbidden)" stroke="#1E2530" rx="4"/>
<text x="540" y="334" fill="#1E2530" font-family="ui-monospace, SFMono-Regular, Menlo, monospace" font-size="11" text-anchor="middle">&#183;</text>
<rect x="595" y="311" width="98" height="38" fill="#0B0E14" stroke="#1E2530" rx="4"/>
<rect x="699" y="311" width="98" height="38" fill="#12161F" stroke="#1E2530" rx="4"/>
<text x="748" y="335" fill="#8B5CF6" font-family="ui-monospace, SFMono-Regular, Menlo, monospace" font-size="14" text-anchor="middle">6</text>
<rect x="803" y="311" width="98" height="38" fill="#12161F" stroke="#1E2530" rx="4"/>
<text x="852" y="335" fill="#8B5CF6" font-family="ui-monospace, SFMono-Regular, Menlo, monospace" font-size="14" text-anchor="middle">4</text>
<text x="160" y="378" fill="#E6EAF2" font-family="ui-monospace, SFMono-Regular, Menlo, monospace" font-size="11.5" text-anchor="end">shared</text>
<text x="160" y="392" fill="#64748B" font-family="ui-monospace, SFMono-Regular, Menlo, monospace" font-size="9" text-anchor="end">28 files</text>
<rect x="179" y="355" width="98" height="38" fill="url(#forbidden)" stroke="#1E2530" rx="4"/>
<text x="228" y="378" fill="#1E2530" font-family="ui-monospace, SFMono-Regular, Menlo, monospace" font-size="11" text-anchor="middle">&#183;</text>
<rect x="283" y="355" width="98" height="38" fill="url(#forbidden)" stroke="#1E2530" rx="4"/>
<text x="332" y="378" fill="#1E2530" font-family="ui-monospace, SFMono-Regular, Menlo, monospace" font-size="11" text-anchor="middle">&#183;</text>
<rect x="387" y="355" width="98" height="38" fill="url(#forbidden)" stroke="#1E2530" rx="4"/>
<text x="436" y="378" fill="#1E2530" font-family="ui-monospace, SFMono-Regular, Menlo, monospace" font-size="11" text-anchor="middle">&#183;</text>
<rect x="491" y="355" width="98" height="38" fill="url(#forbidden)" stroke="#1E2530" rx="4"/>
<text x="540" y="378" fill="#1E2530" font-family="ui-monospace, SFMono-Regular, Menlo, monospace" font-size="11" text-anchor="middle">&#183;</text>
<rect x="595" y="355" width="98" height="38" fill="url(#forbidden)" stroke="#1E2530" rx="4"/>
<text x="644" y="378" fill="#1E2530" font-family="ui-monospace, SFMono-Regular, Menlo, monospace" font-size="11" text-anchor="middle">&#183;</text>
<rect x="699" y="355" width="98" height="38" fill="#0B0E14" stroke="#1E2530" rx="4"/>
<rect x="803" y="355" width="98" height="38" fill="#12161F" stroke="#1E2530" rx="4"/>
<text x="852" y="379" fill="#8B5CF6" font-family="ui-monospace, SFMono-Regular, Menlo, monospace" font-size="14" text-anchor="middle">1</text>
<text x="160" y="422" fill="#E6EAF2" font-family="ui-monospace, SFMono-Regular, Menlo, monospace" font-size="11.5" text-anchor="end">core</text>
<text x="160" y="436" fill="#64748B" font-family="ui-monospace, SFMono-Regular, Menlo, monospace" font-size="9" text-anchor="end">5 files</text>
<rect x="179" y="399" width="98" height="38" fill="url(#forbidden)" stroke="#1E2530" rx="4"/>
<text x="228" y="422" fill="#1E2530" font-family="ui-monospace, SFMono-Regular, Menlo, monospace" font-size="11" text-anchor="middle">&#183;</text>
<rect x="283" y="399" width="98" height="38" fill="url(#forbidden)" stroke="#1E2530" rx="4"/>
<text x="332" y="422" fill="#1E2530" font-family="ui-monospace, SFMono-Regular, Menlo, monospace" font-size="11" text-anchor="middle">&#183;</text>
<rect x="387" y="399" width="98" height="38" fill="url(#forbidden)" stroke="#1E2530" rx="4"/>
<text x="436" y="422" fill="#1E2530" font-family="ui-monospace, SFMono-Regular, Menlo, monospace" font-size="11" text-anchor="middle">&#183;</text>
<rect x="491" y="399" width="98" height="38" fill="url(#forbidden)" stroke="#1E2530" rx="4"/>
<text x="540" y="422" fill="#1E2530" font-family="ui-monospace, SFMono-Regular, Menlo, monospace" font-size="11" text-anchor="middle">&#183;</text>
<rect x="595" y="399" width="98" height="38" fill="url(#forbidden)" stroke="#1E2530" rx="4"/>
<text x="644" y="422" fill="#1E2530" font-family="ui-monospace, SFMono-Regular, Menlo, monospace" font-size="11" text-anchor="middle">&#183;</text>
<rect x="699" y="399" width="98" height="38" fill="url(#forbidden)" stroke="#1E2530" rx="4"/>
<text x="748" y="422" fill="#1E2530" font-family="ui-monospace, SFMono-Regular, Menlo, monospace" font-size="11" text-anchor="middle">&#183;</text>
<rect x="803" y="399" width="98" height="38" fill="#0B0E14" stroke="#1E2530" rx="4"/>
<rect x="32" y="464" width="13" height="13" fill="url(#forbidden)" stroke="#1E2530" rx="3"/>
<text x="53" y="474" fill="#64748B" font-family="system-ui, -apple-system, 'Segoe UI', sans-serif" font-size="12">Forbidden: a module reaching sideways, or any layer reaching up. Both regions are empty, measured.</text>
<rect x="32" y="490" width="13" height="13" fill="#12161F" stroke="#1E2530" rx="3"/>
<text x="53" y="500" fill="#64748B" font-family="system-ui, -apple-system, 'Segoe UI', sans-serif" font-size="12">Permitted. A dot is a pairing the architecture allows and this app has never needed.</text>
</svg>
